# xmcd CD database file
#
# Track frame offsets:
#	150
#	14927
#	35252
#	62620
#	79502
#	93457
#	115670
#	137212
#
# Disc length: 2106 seconds
#
# Revision: 0
# Processed by: cddbd v1.5PL3 Copyright (c) Steve Scherf et al.
# Submitted via: CDex 1.51
#
DISCID=63083808
DTITLE=Randy Volin - Used Guitars
DYEAR=1993
DGENRE=Blues
TTITLE0=Gone gone out of sight
TTITLE1=don't start me to talking
TTITLE2=v-8 ford
TTITLE3=sidewinder
TTITLE4=she's into something
TTITLE5=stick in
TTITLE6=little love
TTITLE7=44 blues
EXTD=YEAR: 1993
EXTT0=
EXTT1=
EXTT2=
EXTT3=
EXTT4=
EXTT5=
EXTT6=
EXTT7=
PLAYORDER=
